<?xml version="1.0" encoding="UTF-8"?><svg id="a" xmlns="http://www.w3.org/2000/svg" viewBox="0 0 841.89 236.66"><path d="M109.52,177.66c-2.4-3.29-3.68-6.81-3.89-10.71-.21-3.87.29-7.59,2.29-11.02-.23,4.04.47,7.74,3.59,10.95.3-4.69,2.35-8.26,5.1-11.52,2.28-2.7,5.26-4.54,8.03-6.65,4.08-3.11,7.07-6.94,7.95-12.13.23-1.34.23-2.71.33-4.07-.3.02-.34.04-.35.07-2.09,8.75-10.96,14.06-20.08,12.46-5.51-.97-9.85-3.86-13.11-8.54-4.65-6.67-4.98-16.97-.52-23.78.24-.36.41-.77.63-1.2-.38-.21-.65-.36-.92-.5-4.77-2.53-8.65-5.96-11.12-10.84-2.48-4.89-3.42-9.97-1.5-15.26,3.36-9.26,15.47-13.89,24.34-9.28,2,1.04,3.8,2.48,5.76,3.8.53-.46,1.2-1.08,1.9-1.66,2.11-1.75,4.5-2.91,7.26-3.03,5.02-.22,9.25,2.99,10.64,8.04,1.08,3.91.57,7.82-.3,11.68-.32,1.42-.82,2.8-1.27,4.31.2-.15.29-.21.36-.28,5.95-5.93,6.59-17,1.31-23.55-3.35-4.16-7.69-5.89-12.99-4.85-2.73.54-4.99,2.01-7.03,3.9-.19-.14-.36-.26-.51-.39-4.94-4.46-10.83-6.12-17.29-5.33-8.72,1.07-15.25,5.71-19.79,13.2-1.63,2.69-2.74,5.58-3.46,8.91-.54-8.06,2.85-17,10.98-21.94,10.34-6.29,20.47-5.94,30.13,1.67,7.58-6.22,15.73-4.83,24.24-1.4-2.12-2.31-4.48-3.68-7.48-4.58,6.06-2.52,8.88-7,9.65-13.15-.26.2-.4.29-.51.4-2.75,2.75-6.11,4.02-9.96,4.14-4.55.14-8.73-1.2-12.73-3.23-5.58-2.83-11.26-5.34-17.47-6.59-7.94-1.6-15.73-1.1-23.42,1.28-10.52,3.25-19.19,9.24-26,17.85-4.13,5.22-7.35,10.95-8.88,17.52-.06.26-.2.52-.36.73-2.57,3.31-3.68,7.14-3.94,11.25-.36,5.64,1.3,10.74,4.23,15.49.22.35.42.71.62,1.07-.05.02-.1.05-.15.07-.42-.32-.83-.64-1.25-.95-.09.07-.18.15-.27.22,1.07,16.61,6.99,31.17,18.55,43.36,8.59,9.05,18.86,15.36,30.75,19.15-4.44-4.59-7.61-9.88-9.19-16.04-1.56-6.09-1.77-12.22.08-18.3-1.16,21.22,15.6,35.89,27.01,39.25ZM141.53,139.14c3.65-.53,7.16-1.04,10.66-1.56,1.7-.25,3.39-.59,5.1-.77,1.33-.14,2.49.71,2.64,1.76.16,1.05-.85,2.18-2.19,2.42-.59.1-1.19.11-1.78.2-3.61.52-7.23,1.03-10.83,1.6-2.38.38-4.83.56-6.93,1.96-5.56,3.72-7.33,9.31-6.61,15.17.24,1.97.04,3.36-1.49,4.53-.11.09-.2.2-.3.3-7.8,7.88-15.6,15.76-23.4,23.65-.25.26-.49.52-.87.93.41.03.58.05.75.05,9.82-.04,19.64-.07,29.47-.14.42,0,.95-.26,1.24-.58,1.46-1.57,2.86-3.2,4.27-4.82,2.19-2.5,4.81-4.17,8.27-4.41.31,1.53.6,3.08.94,4.61.42,1.84,1.93,2.94,3.8,2.69,1.91-.26,3.82-.57,5.71-.96,1.73-.36,2.75-2.13,2.42-3.87-.4-2.06-.75-4.13-1.14-6.31,2.72-.35,5.16-1.06,6.64-3.4,1.61-2.53,1.03-4.87-.96-6.93,2.55-2.63,2.42-4.73-.44-7.65,1.07-1.17,1.9-2.4,1.54-4.14-.34-1.65-1.48-2.64-2.77-3.54,1.25-1.43,1.74-2.93,1.08-4.66-.64-1.66-2.02-2.49-3.35-2.93.49-1.19,1.2-2.26,1.36-3.4.36-2.57-1.95-5.14-4.91-5.43-1.75-.17-3.53.09-5.38.17-.06-.33-.17-.81-.24-1.29-.11-.75.03-1.63-.33-2.22-2.81-4.6-3.16-9.67-3.05-14.85.09-4.27.75-8.4,3.13-12.08.03-.04-.02-.13-.03-.22-4.01,0-8.01,0-12.02,0-.49,0-.99.02-1.48.05-.17,0-.35.04-.52.07-4.72,1.02-7.87,4.66-8.11,9.5-.13,2.56-.09,5.14-.07,7.71.03,4.74,2,8.44,6.51,10.09,2.26.83,2.7,2.22,2.88,4.14,0,.07,0,.14.02.21.26,1.44.52,2.87.8,4.37ZM154,116.69c.22,2.2.26,4.43.72,6.58.42,1.96,1.13,3.91,2.01,5.72,1.05,2.16,1.49,2.21,3.85,1.94.53-.06,1.19.06,1.63.34,2.02,1.27,3.98,2.64,5.98,3.96,4.89,3.23,9.79,6.46,14.69,9.67,1.5.98,2.67.98,4.04-.18.82-.69,1.65-1.52,2.09-2.47,1.13-2.44,2.31-4.91,3.01-7.49,2.24-8.22,2.86-16.6,1.97-25.08-.48-4.6-1.32-9.11-2.99-13.43-.86-2.24-1.86-4.41-3.47-6.23-1.62-1.83-2.94-2.04-4.99-.73-6.45,4.12-12.89,8.27-19.33,12.41-1,.64-1.94,1.44-3.27,1.14-1.76-.4-2.76.49-3.42,1.99-.25.58-.57,1.13-.81,1.71-1.34,3.25-1.61,6.67-1.72,10.16ZM167.89,75.4c.64-.37,1.39-.62,1.91-1.12,1.4-1.34,2.7-2.77,4.03-4.17,6.56-6.92,13.07-13.88,19.69-20.73,1.71-1.77.56-3.9-1.04-4.46-1.45-.51-2.33.31-3.19,1.24-5.46,5.82-10.94,11.63-16.39,17.46-2.37,2.54-4.68,5.15-7.03,7.72-.7.77-.82,1.62-.33,2.51.47.86,1.19,1.37,2.34,1.55ZM178.12,150.75c-1.29.12-2.1.46-2.58,1.36-.47.89-.39,1.77.2,2.58.24.34.55.64.87.91,5.96,4.86,11.93,9.72,17.9,14.56,1.61,1.31,3.21,2.62,4.86,3.87,1.26.96,2.62.75,3.64-.46.93-1.1.81-2.36-.34-3.45-.38-.36-.79-.7-1.2-1.03-3.27-2.67-6.53-5.35-9.81-8-3.88-3.14-7.77-6.27-11.69-9.36-.61-.48-1.4-.74-1.86-.98ZM178.33,80.35c.02.07.05.32.12.55.52,1.66,2.25,2.27,3.94,1.25,1.53-.92,2.96-2.02,4.43-3.03,5.44-3.75,10.87-7.49,16.31-11.24,1.56-1.08,1.88-2.59.87-3.97-.97-1.32-2.5-1.46-3.97-.43-2.93,2.06-5.89,4.07-8.81,6.14-3.78,2.68-7.54,5.39-11.3,8.09-.84.6-1.6,1.29-1.59,2.63ZM225.22,135.51c.02-1.38-.72-2.34-2.07-2.67-4.05-.99-8.11-1.97-12.17-2.94-3.44-.82-6.88-1.66-10.34-2.41-1.57-.34-2.76.64-2.94,2.23-.17,1.52.68,2.68,2.37,3.1,4.05,1,8.11,1.97,12.16,2.96,3.27.79,6.53,1.63,9.81,2.37,1.64.37,3.16-.96,3.18-2.64ZM199.44,101.16c.14-.02.57-.06.97-.16,4.02-.97,8.04-1.96,12.05-2.94,2.99-.73,5.99-1.46,8.98-2.21,1.46-.36,2.17-1.08,2.31-2.26.27-2.24-1.38-3.52-3.69-2.94-5.23,1.33-10.46,2.63-15.7,3.93-1.87.46-3.75.86-5.62,1.31-1.49.36-2.41,1.64-2.22,3.02.19,1.3,1.29,2.23,2.92,2.24ZM195.66,142.44c-1.2.07-2,.65-2.47,1.64-.45.97-.28,1.96.46,2.74.42.44.97.82,1.53,1.08,1.65.76,3.35,1.43,5.01,2.17,3.97,1.77,7.91,3.6,11.9,5.32,2.14.93,4.11-.64,3.86-2.95-.15-1.42-1.33-1.8-2.37-2.27-5.31-2.38-10.62-4.74-15.94-7.08-.63-.28-1.31-.44-1.97-.65ZM215.27,79.92c-.02-1.2-.86-2.48-1.94-2.58-.92-.08-1.97.09-2.79.49-4.67,2.26-9.3,4.63-13.93,6.96-1.06.54-2.15,1.04-3.17,1.65-.8.48-1.23,1.22-1.03,2.22.38,1.81,1.95,2.7,3.76,2,1.34-.52,2.63-1.18,3.92-1.81,4.53-2.24,9.05-4.51,13.58-6.75.96-.48,1.5-1.23,1.61-2.19ZM102.96,96.11c3.33.05,6.24-2.71,6.29-5.94.06-3.61-2.68-6.51-6.14-6.52-3.25,0-6.26,2.98-6.32,6.27-.06,3.27,2.81,6.15,6.17,6.2ZM130.16,90.16c0-3.52-2.71-6.44-5.99-6.45-3.37,0-6.02,2.73-6.05,6.24-.02,3.22,2.82,6.12,6.01,6.11,3.31,0,6.03-2.67,6.03-5.9ZM207.62,111.07s0-.02,0-.03c1.23,0,2.46.02,3.69,0,1.26-.02,2.53,0,3.79-.15,1.39-.16,2.22-1.38,2.14-2.9-.07-1.32-1.02-2.35-2.37-2.34-4.64.01-9.28.05-13.91.15-1.59.04-2.42,1.12-2.35,2.74.06,1.63.97,2.52,2.59,2.53,2.14.01,4.29,0,6.43,0ZM207.97,122.17s0-.03,0-.05c2.11,0,4.22.02,6.32,0,1.74-.02,2.87-1.1,2.89-2.67.02-1.57-1.13-2.65-2.88-2.66-4.25,0-8.5,0-12.75.02-.48,0-.99.1-1.43.28-1.01.42-1.64,1.66-1.46,2.67.25,1.4,1.33,2.37,2.77,2.4,2.18.04,4.36,0,6.53,0ZM117.74,129.44v-.02c1.34,0,2.68,0,4.01,0,1.34,0,2.68.04,4.01,0,.99-.04,1.73-.81,1.68-1.68-.06-1-.75-1.35-1.62-1.48-.17-.03-.35-.02-.53-.02-5,.01-10,.03-15,.04-.28,0-.57-.02-.84.02-.76.11-1.34.48-1.47,1.28-.13.86.34,1.42,1.11,1.69.39.13.82.17,1.24.17,2.46.01,4.93,0,7.39,0ZM157.84,58.86c0-1.78-1.3-3.13-3.01-3.12-1.65,0-3.01,1.37-3.01,3.03,0,1.71,1.33,3.09,2.96,3.06,1.7-.02,3.06-1.34,3.06-2.97ZM152.18,76.22c1.62.01,3.03-1.36,3.07-2.98.04-1.57-1.41-3-3.04-3-1.62,0-2.96,1.36-3,3.03-.03,1.54,1.38,2.94,2.96,2.95ZM162.52,81.7c-1.63-.04-2.93,1.09-2.98,2.61-.05,1.55,1.16,2.88,2.69,2.93,1.65.06,2.95-1.14,2.97-2.73.02-1.5-1.19-2.77-2.68-2.81ZM118.5,113.01c-.57-1.19-1.09-2.57-1.85-3.8-.48-.78-1.4-.9-2.26-.4-.81.47-1.24,1.5-.79,2.26.79,1.32,1.66,2.6,2.6,3.82.51.66,1.32.5,1.74-.25.23-.42.32-.91.56-1.63ZM121.12,113.15c.06.02.12.03.18.05,0,.18-.07.4.01.52.32.49.6,1.12,1.07,1.37.66.35,1.05-.3,1.37-.81.57-.92,1.16-1.83,1.69-2.78.57-1.03.17-2.21-.86-2.76-.87-.47-1.81-.17-2.32.95-.5,1.1-.77,2.3-1.14,3.46ZM150.09,83.55c-1.24,0-2.33,1.07-2.32,2.26.02,1.33,1.13,2.5,2.36,2.52,1.25.02,2.41-1.15,2.42-2.44.01-1.29-1.1-2.35-2.47-2.35ZM147.63,95.37c.01,1.33,1.06,2.43,2.27,2.39,1.26-.04,2.31-1.15,2.28-2.41-.03-1.24-1.13-2.31-2.38-2.32-1.23,0-2.17,1.01-2.16,2.34ZM155.5,91.77c-.02,1.22.8,2.16,1.92,2.19,1.02.03,2.02-.93,2.06-1.98.04-1.06-.94-2.09-2.04-2.13-1.05-.04-1.92.82-1.94,1.91Z" style="fill:#fff; stroke-width:0px;"/><path d="M109.52,177.66c-11.41-3.36-28.17-18.03-27.01-39.25-1.85,6.08-1.64,12.21-.08,18.3,1.58,6.15,4.75,11.45,9.19,16.04-11.89-3.78-22.16-10.1-30.75-19.15-11.56-12.18-17.47-26.74-18.55-43.36.09-.07.18-.15.27-.22.42.32.83.64,1.25.95.05-.02.1-.05.15-.07-.21-.36-.41-.72-.62-1.07-2.93-4.75-4.59-9.85-4.23-15.49.26-4.11,1.37-7.94,3.94-11.25.16-.21.3-.47.36-.73,1.53-6.57,4.75-12.29,8.88-17.52,6.81-8.62,15.49-14.61,26-17.85,7.69-2.37,15.47-2.88,23.42-1.28,6.2,1.25,11.88,3.75,17.47,6.59,4,2.03,8.18,3.36,12.73,3.23,3.85-.12,7.21-1.39,9.96-4.14.11-.11.25-.2.51-.4-.78,6.16-3.59,10.63-9.65,13.15,2.99.91,5.36,2.27,7.48,4.58-8.51-3.44-16.66-4.82-24.24,1.4-9.66-7.6-19.79-7.96-30.13-1.67-8.13,4.95-11.52,13.88-10.98,21.94.72-3.33,1.83-6.22,3.46-8.91,4.54-7.49,11.06-12.13,19.79-13.2,6.45-.79,12.35.87,17.29,5.33.15.14.32.25.51.39,2.04-1.89,4.29-3.36,7.03-3.9,5.31-1.04,9.64.68,12.99,4.85,5.28,6.55,4.64,17.62-1.31,23.55-.07.07-.16.13-.36.28.45-1.51.95-2.89,1.27-4.31.88-3.87,1.38-7.77.3-11.68-1.39-5.05-5.62-8.26-10.64-8.04-2.76.12-5.15,1.27-7.26,3.03-.7.58-1.37,1.2-1.9,1.66-1.97-1.31-3.76-2.76-5.76-3.8-8.87-4.61-20.98.02-24.34,9.28-1.92,5.29-.98,10.37,1.5,15.26,2.47,4.87,6.36,8.31,11.12,10.84.27.14.54.29.92.5-.22.43-.4.83-.63,1.2-4.46,6.81-4.14,17.11.52,23.78,3.26,4.67,7.61,7.57,13.11,8.54,9.11,1.6,17.98-3.71,20.08-12.46,0-.03.05-.05.35-.07-.1,1.36-.1,2.73-.33,4.07-.88,5.19-3.87,9.02-7.95,12.13-2.77,2.11-5.75,3.95-8.03,6.65-2.75,3.26-4.81,6.83-5.1,11.52-3.11-3.21-3.81-6.91-3.59-10.95-2,3.43-2.5,7.15-2.29,11.02.21,3.9,1.49,7.41,3.89,10.71ZM65.98,109.58c-.73.14-1.51.38-2.3.43-8.39.48-14.34-8.52-12.98-15,.72-3.44,3.01-6.15,6.34-6.82,3.47-.7,6.29.51,8.39,3.35.53.72.97,1.51,1.59,2.49.18-3.45.62-6.6,2.68-9.26-2.88-1.81-5.8-3.37-9.18-3.65-8.08-.68-14.42,4.78-15.45,12.76-1.13,8.78,3.66,17.09,11.73,20.72,2.4,1.08,4.96,1.42,7.4,1.33.62-2.22,1.2-4.29,1.78-6.34Z" style="fill:#000; stroke-width:0px;"/><path d="M141.53,139.14c-.27-1.49-.54-2.93-.8-4.37-.01-.07-.01-.14-.02-.21-.18-1.92-.62-3.31-2.88-4.14-4.51-1.65-6.48-5.36-6.51-10.09-.02-2.57-.06-5.14.07-7.71.24-4.84,3.39-8.47,8.11-9.5.17-.04.35-.07.52-.07.49-.02.99-.05,1.48-.05,4.01,0,8.02,0,12.02,0,.01.09.06.18.03.22-2.38,3.68-3.04,7.8-3.13,12.08-.11,5.18.24,10.26,3.05,14.85.36.59.22,1.48.33,2.22.07.48.18.96.24,1.29,1.85-.07,3.63-.34,5.38-.17,2.96.29,5.27,2.87,4.91,5.43-.16,1.15-.87,2.22-1.36,3.4,1.33.44,2.71,1.27,3.35,2.93.67,1.73.17,3.23-1.08,4.66,1.29.91,2.43,1.89,2.77,3.54.36,1.74-.47,2.97-1.54,4.14,2.86,2.93,2.99,5.03.44,7.65,1.98,2.06,2.56,4.4.96,6.93-1.48,2.33-3.92,3.04-6.64,3.4.39,2.18.74,4.25,1.14,6.31.34,1.74-.69,3.51-2.42,3.87-1.89.39-3.8.7-5.71.96-1.87.25-3.38-.84-3.8-2.69-.35-1.53-.63-3.08-.94-4.61-3.46.24-6.08,1.91-8.27,4.41-1.41,1.62-2.81,3.24-4.27,4.82-.29.31-.82.58-1.24.58-9.82.07-19.64.1-29.47.14-.17,0-.33-.02-.75-.05.38-.4.62-.67.87-.93,7.8-7.88,15.6-15.76,23.4-23.65.1-.1.19-.22.3-.3,1.53-1.18,1.73-2.57,1.49-4.53-.72-5.86,1.05-11.45,6.61-15.17,2.1-1.4,4.55-1.59,6.93-1.96,3.61-.57,7.22-1.07,10.83-1.6.59-.09,1.19-.09,1.78-.2,1.34-.24,2.35-1.37,2.19-2.42-.16-1.04-1.31-1.9-2.64-1.76-1.71.18-3.4.52-5.1.77-3.5.52-7,1.02-10.66,1.56ZM135.9,157.52c0,.35-.05.71,0,1.05.51,3.04,1.01,6.09,1.56,9.13.78,4.3,4.79,7.51,9.44,6.61,5.13-.99,10.31-1.76,15.47-2.64.24-.04.48-.13.7-.23,1.04-.49,1.7-1.67,1.43-2.55-.31-1.01-1.36-1.51-2.65-1.29-1.59.27-3.18.54-4.78.77-1.25.18-2.21-.47-2.37-1.52-.13-.91.59-1.67,1.85-1.9,2-.37,4.01-.68,6.01-1.06,1.27-.24,2.13-1.36,1.9-2.35-.27-1.2-1.29-1.75-2.67-1.52-1.97.34-3.94.67-5.92.94-1.38.18-2.19-.41-2.29-1.53-.11-1.14.68-1.9,2.01-2.09,2.12-.3,4.23-.64,6.34-1.02,1.34-.24,2.09-1.31,1.84-2.47-.23-1.07-1.39-1.72-2.64-1.5-2.21.39-4.42.83-6.65,1.08-.62.07-1.46-.3-1.93-.75-.35-.34-.43-1.18-.3-1.72.22-.92,1.15-1.05,1.95-1.18,1.87-.31,3.75-.57,5.62-.87,1.8-.28,2.58-1.03,2.43-2.31-.15-1.26-1.31-1.92-3.01-1.69-.07,0-.14.02-.21.03-4.62.69-9.24,1.41-13.86,2.05-5.6.78-9.29,4.9-9.29,10.53ZM135.49,111.26c.06.03.12.1.17.1,3.76.04,7.52.1,11.29.08.29,0,.75-.44.84-.75.26-.91.39-1.85.53-2.79.07-.47-.03-.83-.64-.83-2.67.02-5.35-.09-8.02.07-2.55.15-4.22,1.92-4.17,4.12Z" style="fill:#000; stroke-width:0px;"/><path d="M154,116.69c.11-3.48.37-6.91,1.72-10.16.24-.58.56-1.13.81-1.71.66-1.5,1.67-2.39,3.42-1.99,1.33.3,2.27-.5,3.27-1.14,6.44-4.14,12.87-8.29,19.33-12.41,2.05-1.31,3.37-1.1,4.99.73,1.61,1.82,2.61,3.99,3.47,6.23,1.67,4.33,2.51,8.84,2.99,13.43.89,8.49.27,16.87-1.97,25.08-.7,2.58-1.88,5.05-3.01,7.49-.44.95-1.28,1.77-2.09,2.47-1.37,1.17-2.54,1.17-4.04.18-4.9-3.21-9.8-6.44-14.69-9.67-1.99-1.32-3.95-2.69-5.98-3.96-.44-.28-1.1-.4-1.63-.34-2.36.27-2.8.22-3.85-1.94-.88-1.81-1.59-3.76-2.01-5.72-.46-2.15-.5-4.38-.72-6.58ZM182.52,139.02c1.43-14.52,1.84-29.03-.19-43.53-3.93,14.53-3.85,29.04.19,43.53ZM166.22,115.92v-.02c2.32,0,4.65.02,6.97,0,1.25-.01,1.53-.33,1.59-1.55.04-.7.13-1.4.15-2.11.04-1.17-.33-1.53-1.5-1.44-4.63.36-9.26.72-13.88,1.08-1.25.1-1.81.93-1.78,2.62.02.97.56,1.41,1.8,1.42,2.22,0,4.44,0,6.65,0Z" style="fill:#000; stroke-width:0px;"/><path d="M167.89,75.4c-1.15-.18-1.87-.69-2.34-1.55-.5-.9-.37-1.75.33-2.51,2.34-2.57,4.65-5.18,7.03-7.72,5.45-5.84,10.92-11.64,16.39-17.46.87-.93,1.75-1.74,3.19-1.24,1.6.56,2.75,2.69,1.04,4.46-6.62,6.85-13.13,13.82-19.69,20.73-1.33,1.4-2.63,2.84-4.03,4.17-.52.5-1.27.75-1.91,1.12Z" style="fill:#000; stroke-width:0px;"/><path d="M178.12,150.75c.47.24,1.25.5,1.86.98,3.92,3.09,7.81,6.22,11.69,9.36,3.28,2.65,6.54,5.33,9.81,8,.41.33.81.67,1.2,1.03,1.15,1.09,1.27,2.34.34,3.45-1.02,1.21-2.38,1.42-3.64.46-1.65-1.25-3.25-2.57-4.86-3.87-5.97-4.85-11.94-9.7-17.9-14.56-.32-.26-.63-.57-.87-.91-.58-.81-.66-1.68-.2-2.58.47-.9,1.29-1.24,2.58-1.36Z" style="fill:#000; stroke-width:0px;"/><path d="M178.33,80.35c-.01-1.34.75-2.02,1.59-2.63,3.76-2.71,7.52-5.42,11.3-8.09,2.92-2.07,5.88-4.08,8.81-6.14,1.47-1.03,3-.89,3.97.43,1.01,1.38.69,2.89-.87,3.97-5.43,3.75-10.87,7.49-16.31,11.24-1.47,1.02-2.9,2.11-4.43,3.03-1.7,1.02-3.42.41-3.94-1.25-.07-.23-.1-.47-.12-.55Z" style="fill:#000; stroke-width:0px;"/><path d="M225.22,135.51c-.03,1.68-1.55,3.01-3.18,2.64-3.28-.74-6.54-1.58-9.81-2.37-4.05-.99-8.11-1.95-12.16-2.96-1.69-.42-2.55-1.58-2.37-3.1.18-1.59,1.38-2.57,2.94-2.23,3.46.75,6.9,1.59,10.34,2.41,4.06.97,8.11,1.96,12.17,2.94,1.36.33,2.09,1.29,2.07,2.67Z" style="fill:#000; stroke-width:0px;"/><path d="M199.44,101.16c-1.63,0-2.73-.94-2.92-2.24-.2-1.37.73-2.66,2.22-3.02,1.87-.45,3.76-.85,5.62-1.31,5.24-1.3,10.47-2.6,15.7-3.93,2.31-.59,3.96.7,3.69,2.94-.14,1.17-.85,1.89-2.31,2.26-2.99.75-5.99,1.47-8.98,2.21-4.02.98-8.04,1.97-12.05,2.94-.41.1-.83.14-.97.16Z" style="fill:#000; stroke-width:0px;"/><path d="M195.66,142.44c.66.21,1.34.37,1.97.65,5.32,2.35,10.64,4.7,15.94,7.08,1.04.47,2.21.84,2.37,2.27.25,2.31-1.72,3.88-3.86,2.95-3.99-1.73-7.93-3.55-11.9-5.32-1.66-.74-3.36-1.41-5.01-2.17-.56-.26-1.11-.63-1.53-1.08-.74-.78-.91-1.76-.46-2.74.46-.99,1.27-1.57,2.47-1.64Z" style="fill:#000; stroke-width:0px;"/><path d="M215.27,79.92c-.11.96-.64,1.71-1.61,2.19-4.53,2.25-9.05,4.51-13.58,6.75-1.29.64-2.58,1.29-3.92,1.81-1.81.7-3.38-.19-3.76-2-.21-1,.22-1.75,1.03-2.22,1.02-.61,2.11-1.11,3.17-1.65,4.64-2.33,9.26-4.7,13.93-6.96.83-.4,1.88-.57,2.79-.49,1.08.1,1.91,1.37,1.94,2.58Z" style="fill:#000; stroke-width:0px;"/><path d="M102.96,96.11c-3.36-.05-6.23-2.93-6.17-6.2.06-3.29,3.08-6.28,6.32-6.27,3.47,0,6.2,2.91,6.14,6.52-.05,3.24-2.97,5.99-6.29,5.94ZM102.03,88.1c0,.91.68,1.6,1.59,1.61.9,0,1.65-.85,1.63-1.84-.02-.88-.77-1.65-1.6-1.64-.85,0-1.62.91-1.61,1.88Z" style="fill:#000; stroke-width:0px;"/><path d="M130.16,90.16c0,3.24-2.72,5.9-6.03,5.9-3.18,0-6.03-2.89-6.01-6.11.03-3.5,2.68-6.24,6.05-6.24,3.28,0,5.99,2.93,5.99,6.45ZM124.98,86.26c-.85,0-1.6.83-1.59,1.76,0,.88.65,1.51,1.53,1.51.95,0,1.7-.73,1.67-1.64-.02-.84-.81-1.64-1.61-1.63Z" style="fill:#000; stroke-width:0px;"/><path d="M207.62,111.07c-2.14,0-4.29,0-6.43,0-1.62,0-2.53-.91-2.59-2.53-.06-1.62.77-2.71,2.35-2.74,4.64-.11,9.28-.14,13.91-.15,1.35,0,2.3,1.02,2.37,2.34.08,1.52-.75,2.74-2.14,2.9-1.25.15-2.52.13-3.79.15-1.23.02-2.46,0-3.69,0,0,.01,0,.02,0,.03Z" style="fill:#000; stroke-width:0px;"/><path d="M207.97,122.17c-2.18,0-4.36.03-6.53,0-1.45-.03-2.52-1-2.77-2.4-.18-1.02.45-2.25,1.46-2.67.44-.18.95-.28,1.43-.28,4.25-.03,8.5-.03,12.75-.02,1.75,0,2.9,1.09,2.88,2.66-.02,1.57-1.15,2.65-2.89,2.67-2.11.03-4.22,0-6.32,0,0,.02,0,.03,0,.05Z" style="fill:#000; stroke-width:0px;"/><path d="M117.74,129.44c-2.46,0-4.93,0-7.39,0-.41,0-.85-.03-1.24-.17-.77-.27-1.24-.82-1.11-1.69.12-.81.7-1.18,1.47-1.28.28-.04.56-.02.84-.02,5-.01,10-.03,15-.04.18,0,.35,0,.53.02.87.13,1.56.49,1.62,1.48.05.87-.69,1.64-1.68,1.68-1.34.05-2.68,0-4.01,0-1.34,0-2.68,0-4.01,0v.02Z" style="fill:#000; stroke-width:0px;"/><path d="M157.84,58.86c0,1.63-1.36,2.95-3.06,2.97-1.63.02-2.96-1.36-2.96-3.06,0-1.66,1.36-3.03,3.01-3.03,1.71,0,3.01,1.35,3.01,3.12Z" style="fill:#000; stroke-width:0px;"/><path d="M152.18,76.22c-1.58,0-2.99-1.41-2.96-2.95.03-1.67,1.37-3.02,3-3.03,1.63,0,3.08,1.42,3.04,3-.04,1.62-1.45,2.99-3.07,2.98Z" style="fill:#000; stroke-width:0px;"/><path d="M162.52,81.7c1.49.04,2.7,1.31,2.68,2.81-.02,1.59-1.33,2.79-2.97,2.73-1.52-.05-2.74-1.38-2.69-2.93.05-1.52,1.34-2.65,2.98-2.61Z" style="fill:#000; stroke-width:0px;"/><path d="M118.5,113.01c-.24.72-.33,1.21-.56,1.63-.41.75-1.23.9-1.74.25-.94-1.22-1.81-2.5-2.6-3.82-.45-.75-.02-1.78.79-2.26.86-.5,1.77-.38,2.26.4.76,1.23,1.29,2.61,1.85,3.8Z" style="fill:#000; stroke-width:0px;"/><path d="M121.12,113.15c.37-1.16.64-2.36,1.14-3.46.51-1.12,1.45-1.42,2.32-.95,1.03.55,1.43,1.74.86,2.76-.52.95-1.12,1.86-1.69,2.78-.32.51-.71,1.16-1.37.81-.47-.25-.75-.89-1.07-1.37-.08-.12-.01-.34-.01-.52-.06-.02-.12-.03-.18-.05Z" style="fill:#000; stroke-width:0px;"/><path d="M150.09,83.55c1.36,0,2.48,1.05,2.47,2.35-.01,1.29-1.17,2.45-2.42,2.44-1.24-.02-2.34-1.19-2.36-2.52-.02-1.19,1.07-2.26,2.32-2.26Z" style="fill:#000; stroke-width:0px;"/><path d="M147.63,95.37c-.01-1.33.93-2.34,2.16-2.34,1.25,0,2.35,1.08,2.38,2.32.03,1.26-1.01,2.37-2.28,2.41-1.21.04-2.26-1.06-2.27-2.39Z" style="fill:#000; stroke-width:0px;"/><path d="M155.5,91.77c.02-1.09.89-1.95,1.94-1.91,1.1.04,2.09,1.06,2.04,2.13-.04,1.06-1.04,2.01-2.06,1.98-1.12-.04-1.94-.97-1.92-2.19Z" style="fill:#000; stroke-width:0px;"/><path d="M65.98,109.58c-.57,2.04-1.15,4.12-1.78,6.34-2.44.08-5-.25-7.4-1.33-8.06-3.63-12.86-11.95-11.73-20.72,1.03-7.98,7.38-13.43,15.45-12.76,3.37.28,6.29,1.84,9.18,3.65-2.06,2.67-2.5,5.81-2.68,9.26-.62-.98-1.06-1.77-1.59-2.49-2.1-2.83-4.92-4.05-8.39-3.35-3.33.68-5.62,3.38-6.34,6.82-1.36,6.48,4.59,15.48,12.98,15,.79-.05,1.57-.29,2.3-.43Z" style="fill:#fff; stroke-width:0px;"/><path d="M135.9,157.52c0-5.63,3.69-9.76,9.29-10.53,4.63-.64,9.24-1.36,13.86-2.05.07-.01.14-.02.21-.03,1.7-.22,2.86.43,3.01,1.69.15,1.27-.63,2.02-2.43,2.31-1.87.3-3.75.56-5.62.87-.8.13-1.73.26-1.95,1.18-.13.54-.05,1.38.3,1.72.46.45,1.3.82,1.93.75,2.23-.25,4.43-.7,6.65-1.08,1.25-.22,2.41.43,2.64,1.5.25,1.16-.51,2.23-1.84,2.47-2.1.38-4.22.72-6.34,1.02-1.34.19-2.12.95-2.01,2.09.1,1.12.91,1.71,2.29,1.53,1.98-.26,3.95-.6,5.92-.94,1.38-.24,2.39.32,2.67,1.52.23,1-.63,2.11-1.9,2.35-2,.38-4.01.7-6.01,1.06-1.26.23-1.98.99-1.85,1.9.15,1.05,1.12,1.7,2.37,1.52,1.6-.23,3.19-.5,4.78-.77,1.28-.22,2.34.29,2.65,1.29.27.88-.39,2.07-1.43,2.55-.22.1-.46.19-.7.23-5.16.87-10.33,1.65-15.47,2.64-4.64.9-8.66-2.31-9.44-6.61-.55-3.04-1.05-6.08-1.56-9.13-.06-.34,0-.7,0-1.05Z" style="fill:#fff; stroke-width:0px;"/><path d="M135.49,111.26c-.04-2.19,1.62-3.97,4.17-4.12,2.67-.15,5.35-.05,8.02-.07.61,0,.72.36.64.83-.15.94-.27,1.88-.53,2.79-.09.32-.55.75-.84.75-3.76.01-7.52-.04-11.29-.08-.06,0-.12-.06-.17-.1Z" style="fill:#fff; stroke-width:0px;"/><path d="M182.52,139.02c-4.04-14.49-4.12-29-.19-43.53,2.04,14.5,1.62,29.01.19,43.53Z" style="fill:#fff; stroke-width:0px;"/><path d="M166.22,115.92c-2.22,0-4.44,0-6.65,0-1.24,0-1.78-.44-1.8-1.42-.03-1.69.53-2.52,1.78-2.62,4.63-.36,9.25-.72,13.88-1.08,1.17-.09,1.54.26,1.5,1.44-.03.7-.12,1.4-.15,2.11-.06,1.22-.34,1.54-1.59,1.55-2.32.03-4.65,0-6.97,0v.02Z" style="fill:#fff; stroke-width:0px;"/><path d="M102.03,88.1c0-.98.77-1.88,1.61-1.88.83,0,1.58.76,1.6,1.64.03.99-.73,1.85-1.63,1.84-.9,0-1.58-.69-1.59-1.61Z" style="fill:#fff; stroke-width:0px;"/><path d="M124.98,86.26c.8,0,1.59.79,1.61,1.63.03.91-.72,1.64-1.67,1.64-.89,0-1.52-.63-1.53-1.51-.01-.93.74-1.76,1.59-1.76Z" style="fill:#fff; stroke-width:0px;"/><path d="M264.53,48.21h24.25v57.55c0,3.61-1.86,5.42-5.58,5.42h-18.67v-62.97ZM279,103.41c1.35,0,2.02-.65,2.02-1.94v-45.59h-8.81v47.53h6.79ZM336.63,51.44v7.68h-17.46v9.78h16.81v9.05l-16.73,19.96,6.63,7.44c1.02,1.29,2.24,1.94,3.64,1.94h6.79v7.76h-12.37c-1.99,0-3.64-.84-4.93-2.51l-5.9-7.27-6.63,7.92c-.92,1.24-2.18,1.86-3.8,1.86h-11.32v-7.76h7.76c.75,0,1.46-.35,2.1-1.05l6.39-7.84-12.69-15.92h10.35l8.08,8.97,11.56-14.23h-31.04v-8.33h16.17v-9.78h-17.46v-7.68h17.46v-9.78h9.13v9.78h17.46Z" style="fill:#231f20; stroke-width:0px;"/><path d="M355.58,48.21h24.25v57.55c0,3.61-1.86,5.42-5.58,5.42h-18.67v-62.97ZM370.04,103.41c1.35,0,2.02-.65,2.02-1.94v-45.59h-8.81v47.53h6.79ZM427.68,51.44v7.68h-17.46v9.78h16.81v9.05l-16.73,19.96,6.63,7.44c1.02,1.29,2.24,1.94,3.64,1.94h6.79v7.76h-12.37c-1.99,0-3.64-.84-4.93-2.51l-5.9-7.27-6.63,7.92c-.92,1.24-2.18,1.86-3.8,1.86h-11.32v-7.76h7.76c.75,0,1.46-.35,2.1-1.05l6.39-7.84-12.69-15.92h10.35l8.08,8.97,11.56-14.23h-31.04v-8.33h16.17v-9.78h-17.46v-7.68h17.46v-9.78h9.13v9.78h17.46Z" style="fill:#231f20; stroke-width:0px;"/><path d="M457.53,41.98h9.13l-5.82,16.97v57.47h-9.13v-49.14h-6.79v-9.05h5.25c.97,0,1.78-.92,2.43-2.75l4.93-13.5ZM479.52,41.98h10.02l-2.99,8.16h31.85v8.08h-32.74v14.79h30.39v7.76h-30.39v17.14h31.04v7.84h-31.04v10.67h-8.97v-49.87h-11.72v-8.97h7.44c1.02,0,1.83-.86,2.42-2.59l4.69-13.01Z" style="fill:#231f20; stroke-width:0px;"/><path d="M545.03,41.66h7.44l-9.38,7.76h6.39l2.67-2.51h7.44l-14.79,13.9h7.11l1.94-4.28h6.38v-12.85h8.16v-2.34h7.44v2.34h8.33v16.41c0,2.64-1.81,3.96-5.42,3.96h-12.04v5.42c0,.92.35,1.37,1.05,1.37h9.94c.92,0,1.37-.75,1.37-2.26v-2.99h5.42v5.58c0,1.4-.46,2.59-1.37,3.56-.7.81-1.75,1.21-3.15,1.21h-14.79c-3.29,0-4.93-1.18-4.93-3.56v-14.31l-7.11,16.33c-.65,1.67-1.73,2.51-3.23,2.51h-14.55v-6.47h10.35c1.18,0,2.1-.75,2.75-2.26l1.05-2.26h-12.12v-4.12c0-.59.32-1.16.97-1.7l6.06-5.74h-9.05v-3.88c0-.32.21-.67.65-1.05l9.05-7.76ZM568.71,77.23h8.65v2.59h28.86v5.25h-11.15l-3.31,4.2h17.7v5.42h-73.8v-5.42h16.17l-2.42-4.2h-10.83v-5.25h30.15v-2.59ZM539.93,97.27h65.96v15.28c0,2.37-1.19,3.56-3.56,3.56h-62.4v-18.83ZM547.37,104.38h51v-2.51h-51v2.51ZM597.73,111.5c.43,0,.65-.46.65-1.37v-.81h-51v2.18h50.36ZM560.62,89.27h22.31l3.39-4.2h-28.13l2.42,4.2ZM577.03,48.21h-10.35v3.48h10.99v-3.48h-.65ZM577.68,56.21h-10.99v3.23h9.7c.86,0,1.29-.29,1.29-.89v-2.34ZM594.49,72.7v4.93h-7.11v-34.68h21.02v9.7c0,2.48-.84,4.34-2.51,5.58,1.67,1.08,2.51,2.56,2.51,4.45v4.2c0,3.72-1.91,5.66-5.74,5.82h-8.16ZM594.49,48.21v7.36h4.85c1.78,0,2.67-.4,2.67-1.21v-6.14h-7.52ZM594.49,61.14v6.47h6.47c.7,0,1.05-.35,1.05-1.05v-4.2c0-.81-1.64-1.21-4.93-1.21h-2.59Z" style="fill:#231f20; stroke-width:0px;"/><path d="M276.21,139.03h4.74v2.1c0,2.52-1.37,3.77-4.1,3.77h-4.04v5.77h7.71v4.74h-7.71v5.87h7.71v4.74h-7.71v6.47h9.92v-11.91h4.53v11.91h3.18v-15.09h-3.4c-2.33,0-3.5-1.17-3.5-3.5v-14.44h5.01v3.93h8.35v4.31h-8.35v4.53c0,.54.29.81.86.81h6.25v19.45h10.29v-6.47h-7.92v-4.53h7.92v-6.09h-7.92v-4.53h7.92v-5.77h-8.41v-4.74h13.79v32.12h2.16v4.74h-48.07v-4.74h2.42v-31.25h7.11c.5,0,.92-.74,1.24-2.21ZM277.55,179.12h6.9l-3.77,6.63c-.79,1.47-2.14,2.21-4.04,2.21h-11.21v-4.31h8.62c.79,0,1.37-.34,1.72-1.02l1.78-3.5ZM293.94,179.12h6.9l1.56,3.5c.32.68.93,1.02,1.83,1.02h9.27v4.31h-12.66c-1.37,0-2.52-.74-3.45-2.21l-3.45-6.63Z" style="fill:#231f20; stroke-width:0px;"/><path d="M328.07,152.83h4.31l-1.29,27.43c-.07,1.76-.5,3.07-1.29,3.93-.83.93-1.81,1.4-2.96,1.4h-1.94v-4.96h.38c.86,0,1.33-.72,1.4-2.16l1.4-25.65ZM345.74,144.64v5.01h-7.06v39.23h-4.74v-39.23h-8.03v-5.01h8.03v-5.6h4.74v5.6h7.06ZM340.19,152.83h4.26l1.51,26.57c.11.97.39,1.46.86,1.46h.7v4.53h-3.07c-1.62,0-2.55-1.29-2.8-3.88l-1.46-28.67ZM358.24,139.03h6.04v3.02h11.05v5.23h-28.02v-5.23h10.94v-3.02ZM352.86,149.65h5.87l-3.07,7.11c-.61,1.58-1.67,2.37-3.18,2.37h-4.96v-4.53h2.8c.54,0,.95-.39,1.24-1.19l1.29-3.77ZM367.08,161.72h6.9l-9.32,13.79,4.8,6.47c.79,1.11,1.65,1.67,2.59,1.67h2.86v4.53h-6.09c-1.44,0-2.64-.7-3.61-2.1l-3.93-5.44-3.13,4.63c-1.22,1.8-2.69,2.69-4.42,2.69h-5.6v-4.74h2.21c1.4,0,2.87-1.17,4.42-3.5l2.86-4.15-9.86-13.63h6.9l6.41,8.68,6.04-8.89ZM363.04,149.65h5.98l1.13,3.77c.22.79.63,1.19,1.24,1.19h3.93v4.53h-6.9c-1.08,0-1.98-.79-2.69-2.37l-2.69-7.11Z" style="fill:#231f20; stroke-width:0px;"/><path d="M407.3,139.46h7.11v4.96h21.39v5.44h-34.49l-.7,7.33h32.39v25.6c0,3.3-1.81,4.96-5.44,4.96h-19.34v-5.33h17.19c1.04,0,1.56-.45,1.56-1.35v-18.54h-26.78l-1.56,18.91c-.4,4.49-1.53,6.74-3.4,6.74h-9.05v-5.17h4.96c.93,0,1.46-1.6,1.56-4.8l2.48-28.34h-9v-5.44h21.12v-4.96Z" style="fill:#231f20; stroke-width:0px;"/><path d="M496.29,143.77v5.17h-31.9l-2.42,4.31h32.39v30.88c0,2.84-1.81,4.26-5.44,4.26h-17.62v-4.96h15.52c.97,0,1.45-.34,1.45-1.02v-3.72h-29.31v10.4h-5.98v-24.41h-6.09v-5.77h4.53c.79,0,1.44-.56,1.94-1.67l4.42-8.3h-9.97v-5.17h12.72l2.32-4.31h6.9l-2.42,4.31h28.99ZM458.95,163.66h29.31v-5.23h-29.26l-.05.05v5.17ZM458.95,173.74h29.31v-5.12h-29.31v5.12Z" style="fill:#231f20; stroke-width:0px;"/><path d="M511.72,167.7h4.9l-2.16,14.76c-.54,3.38-1.9,5.07-4.09,5.07h-2.8v-5.33h1.35c.43,0,.81-.83,1.13-2.48l1.67-12.02ZM517.06,139.03h6.09l-8.24,8.89h5.39l4.36-4.74h6.41l-15.68,16.97h8.78c.61,0,.92-.27.92-.81v-5.44h4.96v7.6c0,.72-.38,1.47-1.13,2.26-.79.9-1.8,1.35-3.02,1.35h-2.59v23.98h-5.33v-23.98h-9.75v-3.61c0-.65.61-1.51,1.83-2.59l5.82-6.25h-6.95v-3.93c0-.36.18-.7.54-1.02l7.6-8.68ZM524.44,167.97h4.74l2.37,12.07c.11.97.45,1.46,1.02,1.46h2.37v5.23h-5.12c-1.76,0-2.77-1.44-3.02-4.31l-2.37-14.44ZM536.73,139.03h5.98l-1.02,5.39h13.36v39.23c0,3.02-1.72,4.53-5.17,4.53h-12.55v-5.17h10.62c.83,0,1.24-.34,1.24-1.02v-32.33h-8.46l-.59,2.69c-.65,3.09-2.3,4.63-4.96,4.63h-3.39v-4.96h1.46c.61,0,1.1-.74,1.46-2.21l2.05-10.78ZM534.73,159.35h5.87l1.99,10.24c.25,1.33.66,1.99,1.24,1.99h3.4v5.17h-5.6c-2.01,0-3.36-1.4-4.04-4.2l-2.86-13.2Z" style="fill:#231f20; stroke-width:0px;"/><path d="M579.32,174.6h6.04l-2.96,9.97c-.72,2.26-2.53,3.4-5.44,3.4h-8.68v-5.17h6.68c.75,0,1.37-.47,1.83-1.4l2.53-6.79ZM611.22,139.46h5.98c-.18,2.77-.74,4.71-1.67,5.82-.93,1.01-2.25,1.51-3.93,1.51h-23.82l-8.46,7.38h27.97c.75,0,1.13-.3,1.13-.92v-3.83h5.77v5.77c0,2.77-1.44,4.15-4.31,4.15h-20.15l-12.18,7.49h31.09c.83,0,1.24-.27,1.24-.81v-4.09h6.09v6.04c0,2.69-1.51,4.04-4.53,4.04h-15.36v17.08h-6.2v-17.08h-20.96v-4.53l12.23-8.14h-10.51v-4.31l9.38-8.25h-10.62v-4.74h39.82c.93,0,1.6-.86,1.99-2.59ZM601.04,174.6h6.25l2.69,6.9c.36.86.9,1.29,1.62,1.29h6.3v5.17h-8.68c-2.44,0-4.04-1.08-4.8-3.23l-3.39-10.13Z" style="fill:#231f20; stroke-width:0px;"/><path d="M657.91,141.4v5.17h-16.17l-1.02,6.68h13.9v30.18c0,3.16-1.8,4.74-5.39,4.74h-20.05v-5.17h18.11c.9,0,1.35-.34,1.35-1.02v-23.55h-8.68c-.32,1.9-1.17,2.86-2.53,2.86h-8.24v-4.96h4.31c.61,0,.95-.56,1.02-1.67l1.29-8.08h-6.2v-5.17h28.29ZM632.69,164.68h5.77l1.56,5.44c.14.83.57,1.24,1.29,1.24h4.53v5.17h-7.6c-1.69,0-2.75-.93-3.18-2.8l-2.37-9.05ZM660.49,141.62h6.04v37.99h-6.04v-37.99ZM670.79,139.46h6.04v43.97c0,3.31-1.85,4.96-5.55,4.96h-9.54v-5.17h8.03c.68,0,1.02-.34,1.02-1.02v-42.73Z" style="fill:#231f20; stroke-width:0px;"/><path d="M699.37,172.5h6.47l-2.86,11.64c-.79,2.69-2.62,4.04-5.5,4.04h-7.6v-5.17h5.44c.68,0,1.24-.59,1.67-1.78l2.37-8.73ZM691.61,155.2h6.52l1.72,7.76c.18.9.66,1.35,1.46,1.35h5.66v4.9h-8.84c-1.94,0-3.18-.92-3.72-2.75l-2.8-11.26ZM691.82,139.68h6.52l1.51,6.09c.18.83.66,1.24,1.46,1.24h5.66v5.01h-8.84c-1.94,0-3.18-.95-3.72-2.86l-2.59-9.48ZM734.34,138.87h5.55c-.14,2.8-.67,4.78-1.56,5.93-.83,1.04-2.01,1.56-3.56,1.56h-7.81v7.54h12.77v5.23h-12.77v7.49h10.99v17.3c0,2.98-1.58,4.47-4.74,4.47h-23.44v-21.77h11.21v-7.49h-13.58v-5.23h13.58v-7.54h-12.07v-4.96h23.71c.79,0,1.36-.84,1.72-2.53ZM730.03,183.22c.83,0,1.24-.65,1.24-1.94v-9.48h-14.82v11.42h13.58Z" style="fill:#231f20; stroke-width:0px;"/><path d="M774.99,139.46h5.55c-.14,2.44-.67,4.15-1.56,5.12-.83.9-2.03,1.35-3.61,1.35h-7.06v2.59h12.23v4.31h-12.23v2.8h10.08v16.38c0,2.05-1.2,3.07-3.61,3.07h-6.47v2.8h11.59v4.1h-11.59v2.59h11.42v4.31h-29.37v-4.31h12.77v-2.59h-12.12v-4.1h12.12v-2.8h-10.62v-19.45h10.62v-2.8h-12.56v-4.31h12.56v-2.59h-11.86v-4.31h21.93c.83,0,1.42-.72,1.78-2.16ZM757.7,163.44h5.44v-3.72h-5.44v3.72ZM763.14,170.99v-3.72h-5.44v3.72h5.44ZM768.31,159.72v3.72h4.9v-3.72h-4.9ZM771.97,170.99c.83,0,1.24-.38,1.24-1.13v-2.59h-4.9v3.72h3.66ZM781.24,144.2h3.83l.22-4.74h5.01l-.22,4.74h7.97v40.36c0,2.73-1.51,4.1-4.53,4.1h-3.23v-4.53h1.45c.75,0,1.13-.38,1.13-1.13v-33.84h-3.02l-1.19,31.36c-.11,2.73-.65,4.72-1.62,5.98-1.04,1.44-2.26,2.16-3.67,2.16h-3.07v-4.74h1.56c1.04,0,1.6-1.17,1.67-3.5l1.29-31.25h-3.61v-4.96Z" style="fill:#231f20; stroke-width:0px;"/></svg>